<svg width="24" height="24" viewBox="0 0 24 24" fill="none" xmlns="http://www.w3.org/2000/svg">
<path d="M12.0001 21C16.9707 21 21.0001 16.9706 21.0001 12C21.0001 7.02944 16.9707 3 12.0001 3C7.02956 3 3.00012 7.02944 3.00012 12C3.00012 16.9706 7.02956 21 12.0001 21Z" fill="#60A5FA"/>
<path d="M11.25 11.25H12.0001L12 16.5H12.75" fill="white"/>
<path d="M11.25 11.25H12.0001L12 16.5H12.75" stroke="white" stroke-width="1.5" stroke-linecap="round" stroke-linejoin="round"/>
<path d="M12 8.8125C12.5178 8.8125 12.9375 8.39277 12.9375 7.875C12.9375 7.35723 12.5178 6.9375 12 6.9375C11.4822 6.9375 11.0625 7.35723 11.0625 7.875C11.0625 8.39277 11.4822 8.8125 12 8.8125Z" fill="white"/>
</svg>
