<svg width="104" height="55" viewBox="0 0 104 55" fill="none" xmlns="http://www.w3.org/2000/svg">
<path d="M3.95391 31.6597C0.659013 34.6624 3.70145e-05 39.0034 0.823766 41.6145C1.26309 42.5937 2.63596 45.0416 3.29494 45.0416H97.3641V38.5138V21.7048C97.3641 18.1145 96.5404 10.4444 94.893 7.01731C93.2455 3.59023 91.5981 2.61106 90.9391 2.61106C90.2801 2.61106 88.4679 2.61106 86.491 5.22217C84.5141 7.83328 84.8435 11.0972 84.514 12.0763C84.1846 13.0555 84.3493 13.0555 82.0429 14.6874C79.7365 16.3194 72.8057 16.7338 70.0165 16.4826C68.2043 16.3194 67.3806 16.3194 66.7216 15.993C67.0511 15.0138 68.0725 11.7499 68.2043 10.4444C68.3691 8.81245 65.8979 6.03814 64.4152 4.56939C62.9325 3.10064 60.7908 1.95828 59.4729 1.95828C58.4185 1.95828 57.4959 2.82865 57.1664 3.26384L42.5042 12.0763H41.8452C30.5876 17.353 7.2488 28.6569 3.95391 31.6597Z" fill="#D4D4D8"/>
<path d="M11.6968 27.0903C11.9714 27.5799 12.85 28.657 14.1679 29.0487C15.8154 29.5382 20.2635 29.7014 22.7347 29.0487C25.2058 28.3959 40.1976 22.5209 47.6111 19.257C53.5419 16.6459 59.0883 13.8172 61.1202 12.7292" stroke="#A1A1AA"/>
<path d="M7.57837 39.0035C7.57837 37.7523 7.57837 35.0215 7.57837 34.1076C7.57837 32.9653 8.0726 31.9861 9.22582 31.1701C10.1484 30.5174 12.4658 29.375 13.5092 28.8854" stroke="#A1A1AA"/>
<mask id="mask0_47_551" style="mask-type:alpha" maskUnits="userSpaceOnUse" x="0" y="0" width="100" height="47">
<path d="M59.4728 13.3819L60.9555 12.566C62.1636 13.4907 65.0082 15.4708 66.7216 15.9931C68.4349 16.5153 71.0599 16.4282 72.1582 16.3194L82.7018 13.7083L83.196 2.77431L97.3641 0V22.1944C97.1444 22.1944 96.5404 22.0965 95.8814 21.7049C95.0577 21.2153 95.2224 20.7257 93.9044 19.4201C92.5865 18.1146 90.1153 18.2778 88.7974 18.9306C87.4794 19.5833 84.6787 20.7257 82.5371 21.7049C80.3954 22.684 78.5832 22.8472 77.2652 21.7049C76.2109 20.791 73.4212 18.7674 72.1582 17.7882C70.7853 17.897 67.4135 17.7556 64.9094 16.9722C62.4053 16.1889 60.2416 14.2523 59.4728 13.3819Z" fill="white"/>
<path d="M100 38.8403H0V47H100V38.8403Z" fill="white"/>
</mask>
<g mask="url(#mask0_47_551)">
<path d="M3.95391 31.6597C0.659013 34.6624 3.70145e-05 39.0034 0.823766 41.6145C1.26309 42.5937 2.63596 45.0416 3.29494 45.0416H97.3641V38.5138V21.7048C97.3641 18.1145 96.5404 10.4444 94.893 7.01731C93.2455 3.59023 91.5981 2.61106 90.9391 2.61106C90.2801 2.61106 88.4679 2.61106 86.491 5.22217C84.5141 7.83328 84.8435 11.0972 84.514 12.0763C84.1846 13.0555 83.6903 13.3819 81.8781 14.5243C79.4869 16.0316 74.2999 16.4826 71.4992 16.4826C69.2587 16.4826 67.8748 16.3194 66.7216 15.993C67.0511 15.0138 68.0725 11.7499 68.2043 10.4444C68.3691 8.81245 65.8979 6.03814 64.4152 4.56939C62.9325 3.10064 60.7908 1.95828 59.4729 1.95828C58.4185 1.95828 57.4959 2.82865 57.1664 3.26384L42.5042 12.0763H41.8452C30.5876 17.353 7.2488 28.6569 3.95391 31.6597Z" fill="#F5F5F5"/>
</g>
<mask id="mask1_47_551" style="mask-type:alpha" maskUnits="userSpaceOnUse" x="0" y="1" width="98" height="45">
<path d="M3.95391 31.6597C0.659016 34.6624 3.94583e-05 39.0034 0.823769 41.6145C1.26309 42.5937 2.63596 45.0416 3.29494 45.0416H97.3641V38.5138V21.7048C97.3641 18.1145 96.5404 10.4444 94.893 7.01731C93.2455 3.59023 91.5981 2.61106 90.9391 2.61106C90.2801 2.61106 88.4679 2.61106 86.491 5.22217C84.5141 7.83328 84.8435 11.0972 84.514 12.0763C84.1846 13.0555 84.3493 13.0555 82.0429 14.6874C79.7365 16.3194 72.8172 16.1562 70.0165 16.1562C67.776 16.1562 67.106 15.3946 67.0511 15.0138C67.3806 14.0347 68.0725 11.7499 68.2043 10.4444C68.3691 8.81245 65.8979 6.03814 64.4152 4.56939C62.9325 3.10064 60.7908 1.95828 59.4729 1.95828C58.4185 1.95828 57.4959 2.82865 57.1664 3.26384L42.5042 12.0763H41.8452C30.5876 17.353 7.2488 28.6569 3.95391 31.6597Z" fill="#9E4BFF"/>
</mask>
<g mask="url(#mask1_47_551)">
<path d="M55.5189 7.18051L47.9407 11.4236L49.4234 13.2187C51.7298 11.8587 56.4744 9.07356 57.0016 8.81245C57.6606 8.48606 58.3196 8.48606 58.6491 8.81245L59.3081 9.46523C60.1318 10.4444 62.2735 12.7291 64.2504 14.0347C66.2273 15.3402 67.6002 15.1226 68.0395 14.8506L70.6754 9.79162L60.7908 0.163147L54.5305 4.4062C55.0796 4.73259 55.9695 5.34214 56.1779 5.54856C56.5074 5.87495 56.4214 6.29367 56.3426 6.52773C56.2639 6.76179 55.8484 7.01731 55.5189 7.18051Z" fill="#F5F5F5"/>
<path d="M18.7808 22.6839L14.9917 24.8055C16.6537 26.6456 19.3265 27.1767 21.5658 26.1119L21.911 25.9478L18.7808 22.6839Z" fill="#F5F5F5"/>
<path d="M23.0641 20.8888L19.6045 22.5207L22.5699 25.6214L26.0295 24.1527L23.0641 20.8888Z" fill="#F5F5F5"/>
<path d="M27.018 18.4409L23.5583 20.3993L26.6885 23.8263L30.3129 22.1944L27.018 18.4409Z" fill="#F5F5F5"/>
<path d="M31.1367 16.6458L27.8418 18.4409L30.9719 21.868L34.5963 20.2361L31.1367 16.6458Z" fill="#F5F5F5"/>
<path d="M34.9258 14.3611L31.6309 16.1563L35.2552 19.9097L38.8796 18.2778L34.9258 14.3611Z" fill="#F5F5F5"/>
<path d="M39.2092 12.4027L35.9143 14.1978L39.5387 17.9513L43.1631 16.3193L39.2092 12.4027Z" fill="#F5F5F5"/>
<path d="M42.3393 11.2604L41.5156 11.75L44.9753 15.5034L48.5996 13.5451L46.9522 11.75L44.481 13.2187L42.3393 11.2604Z" fill="#F5F5F5"/>
</g>
<path d="M100.53 16.7131C99.4305 15.5359 98.125 14.6021 96.6881 13.965C95.2512 13.3279 93.7111 13 92.1557 13C90.6004 13 89.0602 13.3279 87.6233 13.965C86.1864 14.6021 84.8809 15.5359 83.7814 16.7131L81.4994 19.155L79.2175 16.7131C76.9965 14.3364 73.9841 13.0012 70.8431 13.0012C67.7021 13.0012 64.6898 14.3364 62.4688 16.7131C60.2478 19.0898 59 22.3132 59 25.6744C59 29.0355 60.2478 32.2589 62.4688 34.6356L64.7507 37.0775L81.4994 55L98.2481 37.0775L100.53 34.6356C101.63 33.459 102.503 32.062 103.098 30.5244C103.694 28.9868 104 27.3387 104 25.6744C104 24.01 103.694 22.3619 103.098 20.8243C102.503 19.2867 101.63 17.8897 100.53 16.7131Z" fill="#A1A1AA"/>
</svg>
