<svg width="13" height="11" viewBox="0 0 13 11" fill="none" xmlns="http://www.w3.org/2000/svg">
<path d="M11.0417 10.375H2.29175C2.05968 10.375 1.83712 10.2828 1.67303 10.1187C1.50894 9.95462 1.41675 9.73206 1.41675 9.5V3.375C1.41675 3.14294 1.50894 2.92038 1.67303 2.75628C1.83712 2.59219 2.05968 2.5 2.29175 2.5H4.04143L4.91643 1.1875H8.41643L9.29143 2.5H11.0417C11.2738 2.5 11.4964 2.59219 11.6605 2.75628C11.8246 2.92038 11.9167 3.14294 11.9167 3.375V9.5C11.9167 9.73206 11.8246 9.95462 11.6605 10.1187C11.4964 10.2828 11.2738 10.375 11.0417 10.375Z" stroke="#A1A1AA" stroke-linecap="round" stroke-linejoin="round"/>
<path d="M6.66675 8.1875C7.75406 8.1875 8.6355 7.30606 8.6355 6.21875C8.6355 5.13144 7.75406 4.25 6.66675 4.25C5.57944 4.25 4.698 5.13144 4.698 6.21875C4.698 7.30606 5.57944 8.1875 6.66675 8.1875Z" stroke="#A1A1AA" stroke-linecap="round" stroke-linejoin="round"/>
</svg>
