<svg width="18" height="18" viewBox="0 0 18 18" fill="none" xmlns="http://www.w3.org/2000/svg">
<path d="M2.54912 12.8279C1.6173 11.2571 1.29097 9.40012 1.6314 7.60571C1.97184 5.8113 2.95563 4.20288 4.39803 3.08249C5.84044 1.9621 7.64224 1.4068 9.46509 1.52087C11.2879 1.63494 13.0065 2.41053 14.2979 3.702C15.5894 4.99347 16.365 6.71198 16.4791 8.53484C16.5932 10.3577 16.0379 12.1595 14.9175 13.6019C13.7971 15.0443 12.1887 16.0281 10.3943 16.3686C8.59988 16.709 6.74291 16.3827 5.17207 15.4509L5.17209 15.4508L2.58173 16.1909C2.47456 16.2215 2.36115 16.2229 2.25325 16.195C2.14536 16.167 2.0469 16.1107 1.96809 16.0319C1.88927 15.9531 1.83297 15.8546 1.80501 15.7467C1.77705 15.6388 1.77846 15.5254 1.80908 15.4182L2.54918 12.8279L2.54912 12.8279Z" stroke="#3F3F46" stroke-width="1.5" stroke-linecap="round" stroke-linejoin="round"/>
</svg>
