<svg width="21" height="20" viewBox="0 0 21 20" fill="none" xmlns="http://www.w3.org/2000/svg">
<path d="M4.19739 18.9343L13.256 10.4086L17.5188 14.6714M4.19739 18.9343H14.8545C16.6203 18.9343 18.0517 17.5029 18.0517 15.7371V10.4086M4.19739 18.9343C2.43165 18.9343 1.00024 17.5029 1.00024 15.7371V5.08001C1.00024 3.31427 2.43165 1.88287 4.19739 1.88287H11.1245M16.986 7.02859L16.986 4.01429M16.986 4.01429L16.986 1M16.986 4.01429L13.9717 4.01429M16.986 4.01429L20.0002 4.01429M7.39453 6.67858C7.39453 7.56144 6.67882 8.27715 5.79596 8.27715C4.91309 8.27715 4.19739 7.56144 4.19739 6.67858C4.19739 5.79571 4.91309 5.08001 5.79596 5.08001C6.67882 5.08001 7.39453 5.79571 7.39453 6.67858Z" stroke="#71717A" stroke-width="2" stroke-linecap="round" stroke-linejoin="round"/>
</svg>
