<svg width="44" height="44" viewBox="0 0 44 44" fill="none" xmlns="http://www.w3.org/2000/svg">
<g clip-path="url(#clip0_1079_1890)">
<path d="M22.025 16.6C22.7844 16.6 23.4 15.9844 23.4 15.225C23.4 14.4656 22.7844 13.85 22.025 13.85C21.2656 13.85 20.65 14.4656 20.65 15.225C20.65 15.9844 21.2656 16.6 22.025 16.6Z" fill="black"/>
<path d="M22.025 23.35C22.7844 23.35 23.4 22.7344 23.4 21.975C23.4 21.2156 22.7844 20.6 22.025 20.6C21.2656 20.6 20.65 21.2156 20.65 21.975C20.65 22.7344 21.2656 23.35 22.025 23.35Z" fill="black"/>
<path d="M22.025 30.1C22.7844 30.1 23.4 29.4844 23.4 28.725C23.4 27.9656 22.7844 27.35 22.025 27.35C21.2656 27.35 20.65 27.9656 20.65 28.725C20.65 29.4844 21.2656 30.1 22.025 30.1Z" fill="black"/>
</g>
<defs>
<clipPath id="clip0_1079_1890">
<rect width="24" height="24" fill="white" transform="translate(10 10)"/>
</clipPath>
</defs>
</svg>
