<svg width="15" height="14" viewBox="0 0 15 14" fill="none" xmlns="http://www.w3.org/2000/svg">
<path d="M13.4205 1.64929C13.0784 1.28493 12.6722 0.995898 12.2252 0.798699C11.7782 0.601499 11.299 0.5 10.8151 0.5C10.3312 0.5 9.85208 0.601499 9.40504 0.798699C8.958 0.995898 8.55185 1.28493 8.20976 1.64929L7.49982 2.40512L6.78988 1.64929C6.0989 0.913658 5.16172 0.500381 4.18453 0.500381C3.20733 0.500381 2.27016 0.913658 1.57917 1.64929C0.88819 2.38493 0.5 3.38267 0.5 4.42302C0.5 5.46336 0.88819 6.4611 1.57917 7.19674L2.28911 7.95256L7.49982 13.5L12.7105 7.95256L13.4205 7.19674C13.7627 6.83255 14.0342 6.40014 14.2194 5.92422C14.4047 5.44829 14.5 4.93818 14.5 4.42302C14.5 3.90785 14.4047 3.39774 14.2194 2.92182C14.0342 2.44589 13.7627 2.01348 13.4205 1.64929Z" fill="white" stroke="black" stroke-linecap="round" stroke-linejoin="round"/>
</svg>
