<svg width="15" height="15" viewBox="0 0 15 15" fill="none" xmlns="http://www.w3.org/2000/svg">
<path d="M13.8434 1.7377C13.4768 1.34531 13.0417 1.03404 12.5627 0.821676C12.0837 0.609307 11.5704 0.5 11.0519 0.5C10.5335 0.5 10.0201 0.609307 9.54111 0.821676C9.06215 1.03404 8.62698 1.34531 8.26046 1.7377L7.49981 2.55166L6.73916 1.7377C5.99882 0.945478 4.9947 0.500411 3.94771 0.500411C2.90071 0.500411 1.89659 0.945478 1.15626 1.7377C0.415918 2.52993 7.80073e-09 3.60441 0 4.72479C-7.80073e-09 5.84516 0.415918 6.91965 1.15626 7.71187L1.91691 8.52583L7.49981 14.5L13.0827 8.52583L13.8434 7.71187C14.21 7.31967 14.5009 6.854 14.6994 6.34146C14.8979 5.82893 15 5.27958 15 4.72479C15 4.17 14.8979 3.62064 14.6994 3.10811C14.5009 2.59557 14.21 2.1299 13.8434 1.7377Z" fill="current"/>
</svg>
