<svg width="25" height="24" viewBox="0 0 25 24" fill="none" xmlns="http://www.w3.org/2000/svg">
<path d="M7.87851 10.1905L5.64505 12.424C4.81092 13.2581 4.33124 14.3931 4.34001 15.5859C4.34877 16.7787 4.81796 17.9206 5.69167 18.7673C6.53836 19.641 7.68048 20.1102 8.8731 20.119C10.0929 20.1279 11.201 19.6753 12.0352 18.8411L14.2687 16.6077M17.1215 13.8094L19.3549 11.576C20.1891 10.7418 20.6688 9.60687 20.66 8.41406C20.6512 7.22124 20.182 6.07936 19.3083 5.23262C18.4618 4.38614 17.3199 3.91693 16.1271 3.90816C14.9343 3.8994 13.7992 4.35185 12.965 5.18601L10.7315 7.41946M9.1131 15.3271L15.8135 8.62676" stroke="white" stroke-width="2" stroke-linecap="round" stroke-linejoin="round"/>
</svg>
