<svg width="37" height="36" viewBox="0 0 37 36" fill="none" xmlns="http://www.w3.org/2000/svg">
<path d="M34.1327 13.6985C33.9923 13.2575 33.7221 12.8691 33.3576 12.584C32.9931 12.2988 32.5511 12.1301 32.0893 12.1L23.7375 11.5155L20.6393 3.71411C20.4716 3.28281 20.1776 2.91222 19.7957 2.6509C19.4138 2.38958 18.9619 2.24971 18.4992 2.24963H18.497C18.035 2.25046 17.5839 2.39068 17.2029 2.65196C16.8218 2.91325 16.5285 3.28343 16.3612 3.71411L13.2169 11.5605L4.91128 12.1C4.44946 12.1301 4.00745 12.2988 3.64292 12.584C3.2784 12.8691 3.00828 13.2575 2.86782 13.6985C2.71964 14.1457 2.70956 14.6272 2.83889 15.0803C2.96822 15.5333 3.23097 15.9369 3.59292 16.2385L9.98257 21.6394L8.08193 29.1156C7.95093 29.6192 7.97502 30.1506 8.15105 30.6403C8.32708 31.1299 8.64685 31.5551 9.0685 31.86C9.4756 32.1562 9.96242 32.3229 10.4656 32.3386C10.9688 32.3543 11.4651 32.2181 11.8898 31.9479L18.4816 27.772C18.4904 27.7654 18.4992 27.761 18.5189 27.772L25.6117 32.2654C25.9968 32.5114 26.4471 32.6355 26.9038 32.6214C27.3606 32.6072 27.8024 32.4556 28.1715 32.1863C28.5536 31.9101 28.8434 31.525 29.0029 31.0814C29.1625 30.6378 29.1844 30.1563 29.0658 29.7001L27.0465 21.5328L33.4076 16.2385C33.7696 15.9369 34.0323 15.5333 34.1616 15.0803C34.291 14.6272 34.2809 14.1457 34.1327 13.6985Z" fill="#FBBF24"/>
</svg>
