<svg width="22" height="22" viewBox="0 0 22 22" fill="none" xmlns="http://www.w3.org/2000/svg">
<path d="M7.39062 4.98438L11 1.375L14.6094 4.98438" stroke="#71717A" stroke-width="2" stroke-linecap="round" stroke-linejoin="round"/>
<path d="M11 11V1.375" stroke="#71717A" stroke-width="2" stroke-linecap="round" stroke-linejoin="round"/>
<path d="M15.125 8.25H17.1875C17.3698 8.25 17.5447 8.32243 17.6736 8.45136C17.8026 8.5803 17.875 8.75516 17.875 8.9375V17.875C17.875 18.0573 17.8026 18.2322 17.6736 18.3611C17.5447 18.4901 17.3698 18.5625 17.1875 18.5625H4.8125C4.63016 18.5625 4.4553 18.4901 4.32636 18.3611C4.19743 18.2322 4.125 18.0573 4.125 17.875V8.9375C4.125 8.75516 4.19743 8.5803 4.32636 8.45136C4.4553 8.32243 4.63016 8.25 4.8125 8.25H6.875" stroke="#71717A" stroke-width="2" stroke-linecap="round" stroke-linejoin="round"/>
</svg>
