<svg width="120" height="120" viewBox="0 0 120 120" fill="none" xmlns="http://www.w3.org/2000/svg">
<path d="M10.9539 62.6596C7.65901 65.6624 7.00004 70.0034 7.82377 72.6145C8.26309 73.5937 9.63596 76.0416 10.2949 76.0416H104.364V69.5138V52.7048C104.364 49.1145 103.54 41.4444 101.893 38.0173C100.246 34.5902 98.5981 33.611 97.9391 33.611C97.2801 33.611 95.4679 33.611 93.491 36.2221C91.5141 38.8333 91.8435 42.0971 91.514 43.0763C91.1846 44.0555 91.3493 44.0555 89.0429 45.6874C86.7365 47.3194 79.8057 47.7337 77.0165 47.4826C75.2043 47.3194 74.3806 47.3194 73.7216 46.993C74.0511 46.0138 75.0725 42.7499 75.2043 41.4444C75.3691 39.8124 72.8979 37.0381 71.4152 35.5694C69.9325 34.1006 67.7908 32.9583 66.4729 32.9583C65.4185 32.9583 64.4959 33.8286 64.1664 34.2638L49.5042 43.0763H48.8452C37.5876 48.3529 14.2488 59.6569 10.9539 62.6596Z" fill="#D4D4D8"/>
<path d="M18.6968 58.0904C18.9714 58.5799 19.85 59.657 21.1679 60.0487C22.8154 60.5383 27.2635 60.7015 29.7347 60.0487C32.2058 59.3959 47.1976 53.5209 54.6111 50.257C60.5419 47.6459 66.0883 44.8172 68.1202 43.7292" stroke="#A1A1AA"/>
<path d="M14.5784 70.0034C14.5784 68.7523 14.5784 66.0215 14.5784 65.1076C14.5784 63.9652 15.0726 62.9861 16.2258 62.1701C17.1484 61.5173 19.4658 60.375 20.5092 59.8854" stroke="#A1A1AA"/>
<mask id="mask0_178_4067" style="mask-type:alpha" maskUnits="userSpaceOnUse" x="7" y="31" width="100" height="47">
<path d="M66.4728 44.3819L67.9555 43.566C69.1636 44.4907 72.0082 46.4708 73.7216 46.9931C75.4349 47.5153 78.0599 47.4282 79.1582 47.3194L89.7018 44.7083L90.196 33.7743L104.364 31V53.1944C104.144 53.1944 103.54 53.0965 102.881 52.7049C102.058 52.2153 102.222 51.7257 100.904 50.4201C99.5865 49.1146 97.1153 49.2778 95.7974 49.9306C94.4794 50.5833 91.6787 51.7257 89.5371 52.7049C87.3954 53.684 85.5832 53.8472 84.2652 52.7049C83.2109 51.791 80.4212 49.7674 79.1582 48.7882C77.7853 48.897 74.4135 48.7556 71.9094 47.9722C69.4053 47.1889 67.2416 45.2523 66.4728 44.3819Z" fill="white"/>
<path d="M107 69.8403H7V78H107V69.8403Z" fill="white"/>
</mask>
<g mask="url(#mask0_178_4067)">
<path d="M10.9539 62.6596C7.65901 65.6624 7.00004 70.0034 7.82377 72.6145C8.26309 73.5937 9.63596 76.0416 10.2949 76.0416H104.364V69.5138V52.7048C104.364 49.1145 103.54 41.4444 101.893 38.0173C100.246 34.5902 98.5981 33.611 97.9391 33.611C97.2801 33.611 95.4679 33.611 93.491 36.2221C91.5141 38.8333 91.8435 42.0971 91.514 43.0763C91.1846 44.0555 90.6903 44.3819 88.8781 45.5242C86.4869 47.0316 81.2999 47.4826 78.4992 47.4826C76.2587 47.4826 74.8748 47.3194 73.7216 46.993C74.0511 46.0138 75.0725 42.7499 75.2043 41.4444C75.3691 39.8124 72.8979 37.0381 71.4152 35.5694C69.9325 34.1006 67.7908 32.9583 66.4729 32.9583C65.4185 32.9583 64.4959 33.8286 64.1664 34.2638L49.5042 43.0763H48.8452C37.5876 48.3529 14.2488 59.6569 10.9539 62.6596Z" fill="#F5F5F5"/>
</g>
<mask id="mask1_178_4067" style="mask-type:alpha" maskUnits="userSpaceOnUse" x="7" y="32" width="98" height="45">
<path d="M10.9539 62.6596C7.65902 65.6624 7.00004 70.0034 7.82377 72.6145C8.26309 73.5937 9.63596 76.0416 10.2949 76.0416H104.364V69.5138V52.7048C104.364 49.1145 103.54 41.4444 101.893 38.0173C100.246 34.5902 98.5981 33.611 97.9391 33.611C97.2801 33.611 95.4679 33.611 93.491 36.2221C91.5141 38.8333 91.8435 42.0971 91.514 43.0763C91.1846 44.0555 91.3493 44.0555 89.0429 45.6874C86.7365 47.3194 79.8172 47.1562 77.0165 47.1562C74.776 47.1562 74.106 46.3946 74.0511 46.0138C74.3806 45.0346 75.0725 42.7499 75.2043 41.4444C75.3691 39.8124 72.8979 37.0381 71.4152 35.5694C69.9325 34.1006 67.7908 32.9583 66.4729 32.9583C65.4185 32.9583 64.4959 33.8286 64.1664 34.2638L49.5042 43.0763H48.8452C37.5876 48.3529 14.2488 59.6569 10.9539 62.6596Z" fill="#9E4BFF"/>
</mask>
<g mask="url(#mask1_178_4067)">
<path d="M62.5189 38.1804L54.9407 42.4235L56.4234 44.2186C58.7298 42.8587 63.4744 40.0735 64.0016 39.8124C64.6606 39.486 65.3196 39.486 65.6491 39.8124L66.3081 40.4652C67.1318 41.4443 69.2735 43.7291 71.2504 45.0346C73.2273 46.3402 74.6002 46.1226 75.0395 45.8506L77.6754 40.7916L67.7908 31.1631L61.5305 35.4061C62.0796 35.7325 62.9695 36.3421 63.1779 36.5485C63.5074 36.8749 63.4214 37.2936 63.3426 37.5277C63.2639 37.7617 62.8484 38.0173 62.5189 38.1804Z" fill="#F5F5F5"/>
<path d="M25.7808 53.6838L21.9917 55.8054C23.6537 57.6455 26.3265 58.1766 28.5658 57.1119L28.911 56.9477L25.7808 53.6838Z" fill="#F5F5F5"/>
<path d="M30.0641 51.8888L26.6045 53.5207L29.5699 56.6214L33.0295 55.1527L30.0641 51.8888Z" fill="#F5F5F5"/>
<path d="M34.018 49.4408L30.5583 51.3991L33.6885 54.8262L37.3129 53.1943L34.018 49.4408Z" fill="#F5F5F5"/>
<path d="M38.1367 47.6458L34.8418 49.4409L37.9719 52.868L41.5963 51.236L38.1367 47.6458Z" fill="#F5F5F5"/>
<path d="M41.9258 45.3611L38.6309 47.1562L42.2552 50.9097L45.8796 49.2778L41.9258 45.3611Z" fill="#F5F5F5"/>
<path d="M46.2092 43.4026L42.9143 45.1977L46.5387 48.9512L50.1631 47.3193L46.2092 43.4026Z" fill="#F5F5F5"/>
<path d="M49.3393 42.2603L48.5156 42.7498L51.9753 46.5033L55.5996 44.545L53.9522 42.7498L51.481 44.2186L49.3393 42.2603Z" fill="#F5F5F5"/>
</g>
<path d="M104 61C104 72.0457 95.0457 81 84 81C72.9543 81 64 72.0457 64 61C64 49.9543 72.9543 41 84 41C95.0457 41 104 49.9543 104 61ZM68.9964 61C68.9964 69.2863 75.7137 76.0036 84 76.0036C92.2863 76.0036 99.0036 69.2863 99.0036 61C99.0036 52.7137 92.2863 45.9964 84 45.9964C75.7137 45.9964 68.9964 52.7137 68.9964 61Z" fill="#A1A1AA"/>
<path d="M98.2427 71L110.263 83.0208C111.435 84.1924 111.435 86.0919 110.263 87.2635C109.092 88.435 107.192 88.435 106.021 87.2635L94 75.2426L98.2427 71Z" fill="#A1A1AA"/>
</svg>
