<svg width="37" height="36" viewBox="0 0 37 36" fill="none" xmlns="http://www.w3.org/2000/svg">
<path d="M33.6563 13.8502L33.6563 13.8502L33.6581 13.8557C33.7747 14.2077 33.7826 14.5865 33.6808 14.943C33.5791 15.2995 33.3723 15.6171 33.0875 15.8544L26.7267 21.1485L26.486 21.3489L26.5611 21.6528L28.5804 29.8201L28.5804 29.8201L28.5819 29.8259C28.6752 30.1847 28.6579 30.5633 28.5324 30.9122C28.407 31.261 28.1791 31.5639 27.8786 31.7811L27.8768 31.7824C27.589 31.9924 27.2445 32.1106 26.8884 32.1216C26.5323 32.1326 26.1812 32.0359 25.8809 31.844L25.8793 31.843L18.7865 27.3496L18.7743 27.3419L18.7617 27.3349C18.7054 27.3036 18.5942 27.2538 18.4487 27.2676C18.3287 27.2791 18.2423 27.3296 18.2022 27.3571L11.6222 31.5255L11.6214 31.526C11.2813 31.7424 10.884 31.8514 10.4812 31.8389C10.0783 31.8263 9.68858 31.6928 9.36266 31.4557L9.3615 31.4548C9.02143 31.2089 8.76354 30.8661 8.62157 30.4711C8.4796 30.0762 8.46017 29.6476 8.56583 29.2415L8.56652 29.2388L10.4672 21.7626L10.5442 21.4595L10.3053 21.2575L3.91569 15.8567L3.9157 15.8567L3.913 15.8544C3.6282 15.6171 3.42145 15.2995 3.31969 14.943C3.21792 14.5865 3.22585 14.2077 3.34245 13.8557L3.34248 13.8558L3.34424 13.8502C3.45419 13.505 3.66564 13.201 3.95099 12.9778C4.23634 12.7546 4.58235 12.6225 4.94387 12.5989L13.2493 12.0595L13.5638 12.0391L13.6811 11.7465L16.8253 3.9001L16.8254 3.90011L16.8273 3.89513C16.9581 3.55826 17.1876 3.2687 17.4856 3.06433C17.7836 2.86004 18.1362 2.75036 18.4974 2.74963H18.4991C18.4991 2.74963 18.4991 2.74963 18.4992 2.74963C18.8611 2.74971 19.2146 2.85913 19.5134 3.06354C19.8121 3.26797 20.0421 3.55787 20.1733 3.89528L20.1746 3.89866L23.2728 11.7001L23.3888 11.9923L23.7025 12.0143L32.0544 12.5988L32.0567 12.5989C32.4182 12.6225 32.7642 12.7546 33.0495 12.9778C33.3349 13.201 33.5463 13.505 33.6563 13.8502Z" stroke="#71717A"/>
</svg>
