<svg width="22" height="22" viewBox="0 0 22 22" fill="none" xmlns="http://www.w3.org/2000/svg">
<g clip-path="url(#clip0_178_3520)">
<path d="M2.74927 4.125H6.87427V13.0625H2.74927C2.56693 13.0625 2.39206 12.9901 2.26313 12.8611C2.1342 12.7322 2.06177 12.5573 2.06177 12.375V4.8125C2.06177 4.63016 2.1342 4.4553 2.26313 4.32636C2.39206 4.19743 2.56693 4.125 2.74927 4.125V4.125Z" stroke="#71717A" stroke-width="2" stroke-linecap="round" stroke-linejoin="round"/>
<path d="M6.87427 13.0625L10.3118 19.9375C10.6729 19.9375 11.0305 19.8664 11.3641 19.7282C11.6978 19.59 12.0009 19.3874 12.2563 19.132C12.5117 18.8767 12.7142 18.5735 12.8524 18.2399C12.9906 17.9062 13.0618 17.5486 13.0618 17.1875V15.125H18.3792C18.5742 15.125 18.7669 15.0835 18.9446 15.0034C19.1223 14.9232 19.281 14.8061 19.41 14.66C19.539 14.5138 19.6355 14.3419 19.693 14.1556C19.7505 13.9693 19.7678 13.7729 19.7436 13.5795L18.7123 5.32945C18.6708 4.9969 18.5092 4.69099 18.2579 4.46919C18.0067 4.2474 17.6831 4.125 17.3479 4.125H6.87427" stroke="#71717A" stroke-width="2" stroke-linecap="round" stroke-linejoin="round"/>
</g>
<defs>
<clipPath id="clip0_178_3520">
<rect width="22" height="22" fill="white"/>
</clipPath>
</defs>
</svg>
